{"title":"The Block - S12E09 - The Art Of Deco","uid":15758789,"size":410437120,"categoryP":"video","categoryS":"tv_shows","magnet":"?xt=urn:btih:9f25ae3cfd0e4b6ebcde83d023441fd6c2d55b7a&amp;dn=The+Block+-+S12E09+-+The+Art+Of+Deco&amp;tr=udp%3A%2F%2Ftracker.leechers-paradise.org%3A6969&amp;tr=udp%3A%2F%2Fzer0day.ch%3A1337&amp;tr=udp%3A%2F%2Fopen.demonii.com%3A1337&amp;tr=udp%3A%2F%2Ftracker.coppersurfer.tk%3A6969&amp;tr=udp%3A%2F%2Fexodus.desync.com%3A6969","seeders":8,"leechers":4,"uploader":"Bullrout","files":1,"time":1473084221,"description":"The Block - S12E09 - The Art Of Deco\r\n\r\nMaster bathroom week kicks off and planning is crucial early in the week. For Julia and Sasha, planning takes on a whole new meaning when hours are lost selecting tiles. The teams meet Scotty and Jenna from Fans versus Faves for a challenge.\r\n\r\nComplete name                            : The Block - S12E09 - The Art Of Deco.mp4\r\nFormat                                   : MPEG-4\r\nFormat profile                           : Base Media / Version 2\r\nCodec ID                                 : mp42 (mp42/isom/avc1)\r\nFile size                                : 391 MiB\r\nDuration                                 : 49mn 5s\r\nOverall bit rate mode                    : Variable\r\nOverall bit rate                         : 1 115 Kbps\r\n\r\nVideo\r\nID                                       : 2\r\nFormat                                   : AVC\r\nFormat/Info                              : Advanced Video Codec\r\nFormat profile                           :   \r\nFormat settings, CABAC                   : Yes\r\nFormat settings, ReFrames                : 3 frames\r\nCodec ID                                 : avc1\r\nCodec ID/Info                            : Advanced Video Coding\r\nDuration                                 : 49mn 5s\r\nBit rate mode                            : Variable\r\nBit rate                                 : 983 Kbps\r\nMaximum bit rate                         : 1 000 Kbps\r\nWidth                                    : 720 pixels\r\nHeight                                   : 404 pixels\r\nDisplay aspect ratio                     : 16:9\r\nOriginal display aspect ratio            : 16:9\r\nFrame rate mode                          : Constant\r\nFrame rate                               : 25.000 fps\r\nStandard                                 : PAL\r\nColor space                              : YUV\r\nChroma subsampling                       : 4:2:0\r\nBit depth                                : 8 bits\r\nScan type                                : Progressive\r\nBits/(Pixel*Frame)                       : 0.135\r\nStream size                              : 345 MiB (88%)\r\nWriting library                          : x264 core 112\r\nColor range                              : Limited\r\nColor primaries                          : BT.601 PAL\r\nTransfer characteristics                 : BT.470 System B, BT.470 System G\r\nMatrix coefficients                      : BT.601\r\n\r\nAudio\r\nID                                       : 1\r\nFormat                                   : AAC\r\nFormat/Info                              : Advanced Audio Codec\r\nFormat profile                           : LC\r\nCodec ID                                 : 40\r\nDuration                                 : 49mn 5s\r\nBit rate mode                            : Variable\r\nBit rate                                 : 128 Kbps\r\nMaximum bit rate                         : 576 Kbps\r\nChannel(s)                               : 2 channels\r\nChannel positions                        : Front: L R\r\nSampling rate                            : 48.0 KHz\r\nFrame rate                               : 46.875 fps (1024 spf)\r\nCompression mode                         : Lossy\r\nStream size                              : 45.0 MiB (11%)","torrent":{"xt":"urn:btih:9f25ae3cfd0e4b6ebcde83d023441fd6c2d55b7a","amp;dn":"The+Block+-+S12E09+-+The+Art+Of+Deco","amp;tr":["udp%3A%2F%2Ftracker.leechers-paradise.org%3A6969","udp%3A%2F%2Fzer0day.ch%3A1337","udp%3A%2F%2Fopen.demonii.com%3A1337","udp%3A%2F%2Ftracker.coppersurfer.tk%3A6969","udp%3A%2F%2Fexodus.desync.com%3A6969"],"infoHash":"9f25ae3cfd0e4b6ebcde83d023441fd6c2d55b7a","infoHashBuffer":{"type":"Buffer","data":[159,37,174,60,253,14,75,110,188,222,131,208,35,68,31,214,194,213,91,122]},"announce":[],"urlList":[]}}